<svg id="visual" viewBox="0 0 960 800" width="960" height="800" xmlns="http://www.w3.org/2000/svg" xmlns:xlink="http://www.w3.org/1999/xlink" version="1.1"><path d="M0 623L11.5 616.3C23 609.7 46 596.3 68.8 597.3C91.7 598.3 114.3 613.7 137.2 620C160 626.3 183 623.7 205.8 636C228.7 648.3 251.3 675.7 274.2 669.2C297 662.7 320 622.3 342.8 602.7C365.7 583 388.3 584 411.2 599.8C434 615.7 457 646.3 480 646.3C503 646.3 526 615.7 548.8 605.7C571.7 595.7 594.3 606.3 617.2 616.7C640 627 663 637 685.8 632.8C708.7 628.7 731.3 610.3 754.2 604.7C777 599 800 606 822.8 605.8C845.7 605.7 868.3 598.3 891.2 608.8C914 619.3 937 647.7 948.5 661.8L960 676L960 801L948.5 801C937 801 914 801 891.2 801C868.3 801 845.7 801 822.8 801C800 801 777 801 754.2 801C731.3 801 708.7 801 685.8 801C663 801 640 801 617.2 801C594.3 801 571.7 801 548.8 801C526 801 503 801 480 801C457 801 434 801 411.2 801C388.3 801 365.7 801 342.8 801C320 801 297 801 274.2 801C251.3 801 228.7 801 205.8 801C183 801 160 801 137.2 801C114.3 801 91.7 801 68.8 801C46 801 23 801 11.5 801L0 801Z" fill="#FFE08A" stroke-linecap="round" stroke-linejoin="miter"></path></svg>